<svg id="visual" viewBox="0 0 960 540" width="960" height="540" xmlns="http://www.w3.org/2000/svg" xmlns:xlink="http://www.w3.org/1999/xlink" version="1.1"><path d="M0 412L13.3 414.3C26.7 416.7 53.3 421.3 80 422.5C106.7 423.7 133.3 421.3 160 420C186.7 418.7 213.3 418.3 240 420.8C266.7 423.3 293.3 428.7 320 426.7C346.7 424.7 373.3 415.3 400 414.5C426.7 413.7 453.3 421.3 480 423.7C506.7 426 533.3 423 560 421.3C586.7 419.7 613.3 419.3 640 418C666.7 416.7 693.3 414.3 720 412C746.7 409.7 773.3 407.3 800 412.3C826.7 417.3 853.3 429.7 880 430.2C906.7 430.7 933.3 419.3 946.7 413.7L960 408L960 541L946.7 541C933.3 541 906.7 541 880 541C853.3 541 826.7 541 800 541C773.3 541 746.7 541 720 541C693.3 541 666.7 541 640 541C613.3 541 586.7 541 560 541C533.3 541 506.7 541 480 541C453.3 541 426.7 541 400 541C373.3 541 346.7 541 320 541C293.3 541 266.7 541 240 541C213.3 541 186.7 541 160 541C133.3 541 106.7 541 80 541C53.3 541 26.7 541 13.3 541L0 541Z" fill="#6600ff"></path><path d="M0 453L13.3 449.7C26.7 446.3 53.3 439.7 80 434.7C106.7 429.7 133.3 426.3 160 429.2C186.7 432 213.3 441 240 442C266.7 443 293.3 436 320 432.2C346.7 428.3 373.3 427.7 400 430.8C426.7 434 453.3 441 480 441.2C506.7 441.3 533.3 434.7 560 430.7C586.7 426.7 613.3 425.3 640 426.8C666.7 428.3 693.3 432.7 720 433.7C746.7 434.7 773.3 432.3 800 431C826.7 429.7 853.3 429.3 880 430.7C906.7 432 933.3 435 946.7 436.5L960 438L960 541L946.7 541C933.3 541 906.7 541 880 541C853.3 541 826.7 541 800 541C773.3 541 746.7 541 720 541C693.3 541 666.7 541 640 541C613.3 541 586.7 541 560 541C533.3 541 506.7 541 480 541C453.3 541 426.7 541 400 541C373.3 541 346.7 541 320 541C293.3 541 266.7 541 240 541C213.3 541 186.7 541 160 541C133.3 541 106.7 541 80 541C53.3 541 26.7 541 13.3 541L0 541Z" fill="#9400e5"></path><path d="M0 440L13.3 441.7C26.7 443.3 53.3 446.7 80 446C106.7 445.3 133.3 440.7 160 438C186.7 435.3 213.3 434.7 240 438.2C266.7 441.7 293.3 449.3 320 451.5C346.7 453.7 373.3 450.3 400 447.2C426.7 444 453.3 441 480 442.5C506.7 444 533.3 450 560 453.7C586.7 457.3 613.3 458.7 640 454.8C666.7 451 693.3 442 720 438.5C746.7 435 773.3 437 800 438.3C826.7 439.7 853.3 440.3 880 439C906.7 437.7 933.3 434.3 946.7 432.7L960 431L960 541L946.7 541C933.3 541 906.7 541 880 541C853.3 541 826.7 541 800 541C773.3 541 746.7 541 720 541C693.3 541 666.7 541 640 541C613.3 541 586.7 541 560 541C533.3 541 506.7 541 480 541C453.3 541 426.7 541 400 541C373.3 541 346.7 541 320 541C293.3 541 266.7 541 240 541C213.3 541 186.7 541 160 541C133.3 541 106.7 541 80 541C53.3 541 26.7 541 13.3 541L0 541Z" fill="#ae00cd"></path><path d="M0 478L13.3 476C26.7 474 53.3 470 80 468.5C106.7 467 133.3 468 160 469.8C186.7 471.7 213.3 474.3 240 474.7C266.7 475 293.3 473 320 473C346.7 473 373.3 475 400 475.2C426.7 475.3 453.3 473.7 480 472.3C506.7 471 533.3 470 560 466.5C586.7 463 613.3 457 640 454.3C666.7 451.7 693.3 452.3 720 456.2C746.7 460 773.3 467 800 471.3C826.7 475.7 853.3 477.3 880 477.8C906.7 478.3 933.3 477.7 946.7 477.3L960 477L960 541L946.7 541C933.3 541 906.7 541 880 541C853.3 541 826.7 541 800 541C773.3 541 746.7 541 720 541C693.3 541 666.7 541 640 541C613.3 541 586.7 541 560 541C533.3 541 506.7 541 480 541C453.3 541 426.7 541 400 541C373.3 541 346.7 541 320 541C293.3 541 266.7 541 240 541C213.3 541 186.7 541 160 541C133.3 541 106.7 541 80 541C53.3 541 26.7 541 13.3 541L0 541Z" fill="#bd00b7"></path><path d="M0 466L13.3 465.8C26.7 465.7 53.3 465.3 80 468.3C106.7 471.3 133.3 477.7 160 477.8C186.7 478 213.3 472 240 469.2C266.7 466.3 293.3 466.7 320 469.7C346.7 472.7 373.3 478.3 400 478.7C426.7 479 453.3 474 480 471.3C506.7 468.7 533.3 468.3 560 469C586.7 469.7 613.3 471.3 640 473.2C666.7 475 693.3 477 720 474.7C746.7 472.3 773.3 465.7 800 465.8C826.7 466 853.3 473 880 475.5C906.7 478 933.3 476 946.7 475L960 474L960 541L946.7 541C933.3 541 906.7 541 880 541C853.3 541 826.7 541 800 541C773.3 541 746.7 541 720 541C693.3 541 666.7 541 640 541C613.3 541 586.7 541 560 541C533.3 541 506.7 541 480 541C453.3 541 426.7 541 400 541C373.3 541 346.7 541 320 541C293.3 541 266.7 541 240 541C213.3 541 186.7 541 160 541C133.3 541 106.7 541 80 541C53.3 541 26.7 541 13.3 541L0 541Z" fill="#c500a4"></path><path d="M0 487L13.3 487.2C26.7 487.3 53.3 487.7 80 486.2C106.7 484.7 133.3 481.3 160 480.8C186.7 480.3 213.3 482.7 240 482.5C266.7 482.3 293.3 479.7 320 478.7C346.7 477.7 373.3 478.3 400 478.7C426.7 479 453.3 479 480 481.2C506.7 483.3 533.3 487.7 560 487.7C586.7 487.7 613.3 483.3 640 483.3C666.7 483.3 693.3 487.7 720 490.2C746.7 492.7 773.3 493.3 800 492.5C826.7 491.7 853.3 489.3 880 487.7C906.7 486 933.3 485 946.7 484.5L960 484L960 541L946.7 541C933.3 541 906.7 541 880 541C853.3 541 826.7 541 800 541C773.3 541 746.7 541 720 541C693.3 541 666.7 541 640 541C613.3 541 586.7 541 560 541C533.3 541 506.7 541 480 541C453.3 541 426.7 541 400 541C373.3 541 346.7 541 320 541C293.3 541 266.7 541 240 541C213.3 541 186.7 541 160 541C133.3 541 106.7 541 80 541C53.3 541 26.7 541 13.3 541L0 541Z" fill="#c90093"></path><path d="M0 500L13.3 498.7C26.7 497.3 53.3 494.7 80 496.3C106.7 498 133.3 504 160 504.7C186.7 505.3 213.3 500.7 240 500.2C266.7 499.7 293.3 503.3 320 503.2C346.7 503 373.3 499 400 498.7C426.7 498.3 453.3 501.7 480 502.5C506.7 503.3 533.3 501.7 560 501.5C586.7 501.3 613.3 502.7 640 502.7C666.7 502.7 693.3 501.3 720 498.5C746.7 495.7 773.3 491.3 800 491.8C826.7 492.3 853.3 497.7 880 500.3C906.7 503 933.3 503 946.7 503L960 503L960 541L946.7 541C933.3 541 906.7 541 880 541C853.3 541 826.7 541 800 541C773.3 541 746.7 541 720 541C693.3 541 666.7 541 640 541C613.3 541 586.7 541 560 541C533.3 541 506.7 541 480 541C453.3 541 426.7 541 400 541C373.3 541 346.7 541 320 541C293.3 541 266.7 541 240 541C213.3 541 186.7 541 160 541C133.3 541 106.7 541 80 541C53.3 541 26.7 541 13.3 541L0 541Z" fill="#ca0783"></path><path d="M0 501L13.3 503C26.7 505 53.3 509 80 511.3C106.7 513.7 133.3 514.3 160 513.2C186.7 512 213.3 509 240 506.8C266.7 504.7 293.3 503.3 320 505.2C346.7 507 373.3 512 400 513.2C426.7 514.3 453.3 511.7 480 509.5C506.7 507.3 533.3 505.7 560 506.7C586.7 507.7 613.3 511.3 640 513.5C666.7 515.7 693.3 516.3 720 515.8C746.7 515.3 773.3 513.7 800 513.3C826.7 513 853.3 514 880 515C906.7 516 933.3 517 946.7 517.5L960 518L960 541L946.7 541C933.3 541 906.7 541 880 541C853.3 541 826.7 541 800 541C773.3 541 746.7 541 720 541C693.3 541 666.7 541 640 541C613.3 541 586.7 541 560 541C533.3 541 506.7 541 480 541C453.3 541 426.7 541 400 541C373.3 541 346.7 541 320 541C293.3 541 266.7 541 240 541C213.3 541 186.7 541 160 541C133.3 541 106.7 541 80 541C53.3 541 26.7 541 13.3 541L0 541Z" fill="#c91675"></path><path d="M0 523L13.3 522.2C26.7 521.3 53.3 519.7 80 519.7C106.7 519.7 133.3 521.3 160 522C186.7 522.7 213.3 522.3 240 523.7C266.7 525 293.3 528 320 527.3C346.7 526.7 373.3 522.3 400 521.5C426.7 520.7 453.3 523.3 480 523.3C506.7 523.3 533.3 520.7 560 519.8C586.7 519 613.3 520 640 520.8C666.7 521.7 693.3 522.3 720 523C746.7 523.7 773.3 524.3 800 523.2C826.7 522 853.3 519 880 518.5C906.7 518 933.3 520 946.7 521L960 522L960 541L946.7 541C933.3 541 906.7 541 880 541C853.3 541 826.7 541 800 541C773.3 541 746.7 541 720 541C693.3 541 666.7 541 640 541C613.3 541 586.7 541 560 541C533.3 541 506.7 541 480 541C453.3 541 426.7 541 400 541C373.3 541 346.7 541 320 541C293.3 541 266.7 541 240 541C213.3 541 186.7 541 160 541C133.3 541 106.7 541 80 541C53.3 541 26.7 541 13.3 541L0 541Z" fill="#c62368"></path></svg>