<svg id="visual" viewBox="0 0 960 540" width="960" height="540" xmlns="http://www.w3.org/2000/svg" xmlns:xlink="http://www.w3.org/1999/xlink" version="1.1"><path d="M0 76L10 79.7C20 83.3 40 90.7 60 99C80 107.3 100 116.7 120 112.8C140 109 160 92 180 90C200 88 220 101 240 99.7C260 98.3 280 82.7 300 75.8C320 69 340 71 360 80C380 89 400 105 420 103.5C440 102 460 83 480 79.3C500 75.7 520 87.3 540 96C560 104.7 580 110.3 600 107.2C620 104 640 92 660 90.7C680 89.3 700 98.7 720 99.7C740 100.7 760 93.3 780 88.2C800 83 820 80 840 79C860 78 880 79 900 80.7C920 82.3 940 84.7 950 85.8L960 87L960 0L950 0C940 0 920 0 900 0C880 0 860 0 840 0C820 0 800 0 780 0C760 0 740 0 720 0C700 0 680 0 660 0C640 0 620 0 600 0C580 0 560 0 540 0C520 0 500 0 480 0C460 0 440 0 420 0C400 0 380 0 360 0C340 0 320 0 300 0C280 0 260 0 240 0C220 0 200 0 180 0C160 0 140 0 120 0C100 0 80 0 60 0C40 0 20 0 10 0L0 0Z" fill="#6600ff"></path><path d="M0 89L10 82.5C20 76 40 63 60 60.3C80 57.7 100 65.3 120 74.2C140 83 160 93 180 99.2C200 105.3 220 107.7 240 103.8C260 100 280 90 300 89.7C320 89.3 340 98.7 360 103.2C380 107.7 400 107.3 420 107C440 106.7 460 106.3 480 100.3C500 94.3 520 82.7 540 74C560 65.3 580 59.7 600 62.3C620 65 640 76 660 78.8C680 81.7 700 76.3 720 70.8C740 65.3 760 59.7 780 66.2C800 72.7 820 91.3 840 97.8C860 104.3 880 98.7 900 94.5C920 90.3 940 87.7 950 86.3L960 85L960 0L950 0C940 0 920 0 900 0C880 0 860 0 840 0C820 0 800 0 780 0C760 0 740 0 720 0C700 0 680 0 660 0C640 0 620 0 600 0C580 0 560 0 540 0C520 0 500 0 480 0C460 0 440 0 420 0C400 0 380 0 360 0C340 0 320 0 300 0C280 0 260 0 240 0C220 0 200 0 180 0C160 0 140 0 120 0C100 0 80 0 60 0C40 0 20 0 10 0L0 0Z" fill="#9e00dd"></path><path d="M0 83L10 77.3C20 71.7 40 60.3 60 53.8C80 47.3 100 45.7 120 46C140 46.3 160 48.7 180 50C200 51.3 220 51.7 240 55.3C260 59 280 66 300 71.3C320 76.7 340 80.3 360 78.5C380 76.7 400 69.3 420 65.3C440 61.3 460 60.7 480 60.7C500 60.7 520 61.3 540 60.8C560 60.3 580 58.7 600 63C620 67.3 640 77.7 660 77.5C680 77.3 700 66.7 720 60.5C740 54.3 760 52.7 780 57C800 61.3 820 71.7 840 74.7C860 77.7 880 73.3 900 69.2C920 65 940 61 950 59L960 57L960 0L950 0C940 0 920 0 900 0C880 0 860 0 840 0C820 0 800 0 780 0C760 0 740 0 720 0C700 0 680 0 660 0C640 0 620 0 600 0C580 0 560 0 540 0C520 0 500 0 480 0C460 0 440 0 420 0C400 0 380 0 360 0C340 0 320 0 300 0C280 0 260 0 240 0C220 0 200 0 180 0C160 0 140 0 120 0C100 0 80 0 60 0C40 0 20 0 10 0L0 0Z" fill="#b900be"></path><path d="M0 39L10 42.2C20 45.3 40 51.7 60 53C80 54.3 100 50.7 120 47.3C140 44 160 41 180 45.2C200 49.3 220 60.7 240 67C260 73.3 280 74.7 300 68.2C320 61.7 340 47.3 360 47.3C380 47.3 400 61.7 420 64C440 66.3 460 56.7 480 56.8C500 57 520 67 540 71.5C560 76 580 75 600 73.7C620 72.3 640 70.7 660 69.8C680 69 700 69 720 67.3C740 65.7 760 62.3 780 63.2C800 64 820 69 840 69C860 69 880 64 900 64.7C920 65.3 940 71.7 950 74.8L960 78L960 0L950 0C940 0 920 0 900 0C880 0 860 0 840 0C820 0 800 0 780 0C760 0 740 0 720 0C700 0 680 0 660 0C640 0 620 0 600 0C580 0 560 0 540 0C520 0 500 0 480 0C460 0 440 0 420 0C400 0 380 0 360 0C340 0 320 0 300 0C280 0 260 0 240 0C220 0 200 0 180 0C160 0 140 0 120 0C100 0 80 0 60 0C40 0 20 0 10 0L0 0Z" fill="#c500a4"></path><path d="M0 60L10 59.7C20 59.3 40 58.7 60 54.2C80 49.7 100 41.3 120 38.2C140 35 160 37 180 41.3C200 45.7 220 52.3 240 53C260 53.7 280 48.3 300 42.8C320 37.3 340 31.7 360 30.5C380 29.3 400 32.7 420 33.8C440 35 460 34 480 32.8C500 31.7 520 30.3 540 30C560 29.7 580 30.3 600 34.8C620 39.3 640 47.7 660 48.8C680 50 700 44 720 43.3C740 42.7 760 47.3 780 45.5C800 43.7 820 35.3 840 32C860 28.7 880 30.3 900 35.3C920 40.3 940 48.7 950 52.8L960 57L960 0L950 0C940 0 920 0 900 0C880 0 860 0 840 0C820 0 800 0 780 0C760 0 740 0 720 0C700 0 680 0 660 0C640 0 620 0 600 0C580 0 560 0 540 0C520 0 500 0 480 0C460 0 440 0 420 0C400 0 380 0 360 0C340 0 320 0 300 0C280 0 260 0 240 0C220 0 200 0 180 0C160 0 140 0 120 0C100 0 80 0 60 0C40 0 20 0 10 0L0 0Z" fill="#ca008e"></path><path d="M0 37L10 34.7C20 32.3 40 27.7 60 27C80 26.3 100 29.7 120 29.3C140 29 160 25 180 25.2C200 25.3 220 29.7 240 31.2C260 32.7 280 31.3 300 29.5C320 27.7 340 25.3 360 27.3C380 29.3 400 35.7 420 37.3C440 39 460 36 480 32.2C500 28.3 520 23.7 540 22.3C560 21 580 23 600 23.3C620 23.7 640 22.3 660 24.8C680 27.3 700 33.7 720 33.8C740 34 760 28 780 28C800 28 820 34 840 34.8C860 35.7 880 31.3 900 29C920 26.7 940 26.3 950 26.2L960 26L960 0L950 0C940 0 920 0 900 0C880 0 860 0 840 0C820 0 800 0 780 0C760 0 740 0 720 0C700 0 680 0 660 0C640 0 620 0 600 0C580 0 560 0 540 0C520 0 500 0 480 0C460 0 440 0 420 0C400 0 380 0 360 0C340 0 320 0 300 0C280 0 260 0 240 0C220 0 200 0 180 0C160 0 140 0 120 0C100 0 80 0 60 0C40 0 20 0 10 0L0 0Z" fill="#ca1279"></path><path d="M0 26L10 24.3C20 22.7 40 19.3 60 16.8C80 14.3 100 12.7 120 12.5C140 12.3 160 13.7 180 15C200 16.3 220 17.7 240 18.3C260 19 280 19 300 17.5C320 16 340 13 360 13.5C380 14 400 18 420 19.7C440 21.3 460 20.7 480 18.7C500 16.7 520 13.3 540 13.8C560 14.3 580 18.7 600 21C620 23.3 640 23.7 660 24.2C680 24.7 700 25.3 720 25C740 24.7 760 23.3 780 23.8C800 24.3 820 26.7 840 26C860 25.3 880 21.7 900 21.7C920 21.7 940 25.3 950 27.2L960 29L960 0L950 0C940 0 920 0 900 0C880 0 860 0 840 0C820 0 800 0 780 0C760 0 740 0 720 0C700 0 680 0 660 0C640 0 620 0 600 0C580 0 560 0 540 0C520 0 500 0 480 0C460 0 440 0 420 0C400 0 380 0 360 0C340 0 320 0 300 0C280 0 260 0 240 0C220 0 200 0 180 0C160 0 140 0 120 0C100 0 80 0 60 0C40 0 20 0 10 0L0 0Z" fill="#c62368"></path></svg>